<mxfile host="app.diagrams.net" agent="Mozilla/5.0 (Windows NT 10.0; Win64; x64) AppleWebKit/537.36 (KHTML, like Gecko) Chrome/126.0.0.0 Safari/537.36" version="24.7.6">
  <diagram name="Page-1" id="TiUEHgqfJBGhYfre_K9S">
    <mxGraphModel dx="658" dy="408" grid="1" gridSize="10" guides="1" tooltips="1" connect="1" arrows="1" fold="1" page="1" pageScale="1" pageWidth="850" pageHeight="1100" math="0" shadow="0">
      <root>
        <mxCell id="0" />
        <mxCell id="1" parent="0" />
        <mxCell id="iQ4TSpvCuS7kMtAHbJux-5" value="PEMESANAN MAKANAN&amp;nbsp;" style="swimlane;childLayout=stackLayout;resizeParent=1;resizeParentMax=0;startSize=20;html=1;" vertex="1" parent="1">
          <mxGeometry x="240" y="60" width="245.00999999999954" height="572.5" as="geometry" />
        </mxCell>
        <mxCell id="iQ4TSpvCuS7kMtAHbJux-6" value="COSTUMER" style="swimlane;startSize=20;html=1;" vertex="1" parent="iQ4TSpvCuS7kMtAHbJux-5">
          <mxGeometry y="20" width="120.01" height="552.5" as="geometry" />
        </mxCell>
        <mxCell id="iQ4TSpvCuS7kMtAHbJux-25" value="&lt;span style=&quot;font-size: 8px;&quot;&gt;melihat lihat menu dan memesan&amp;nbsp;&lt;/span&gt;" style="shape=document;whiteSpace=wrap;html=1;boundedLbl=1;" vertex="1" parent="iQ4TSpvCuS7kMtAHbJux-6">
          <mxGeometry x="15" y="190" width="90" height="60" as="geometry" />
        </mxCell>
        <mxCell id="iQ4TSpvCuS7kMtAHbJux-7" value="WAITERS" style="swimlane;startSize=20;html=1;" vertex="1" parent="iQ4TSpvCuS7kMtAHbJux-5">
          <mxGeometry x="120.01" y="20" width="124.99999999999955" height="552.5" as="geometry" />
        </mxCell>
        <mxCell id="iQ4TSpvCuS7kMtAHbJux-40" value="" style="edgeStyle=orthogonalEdgeStyle;rounded=0;orthogonalLoop=1;jettySize=auto;html=1;" edge="1" parent="iQ4TSpvCuS7kMtAHbJux-7" source="iQ4TSpvCuS7kMtAHbJux-29" target="iQ4TSpvCuS7kMtAHbJux-39">
          <mxGeometry relative="1" as="geometry" />
        </mxCell>
        <mxCell id="iQ4TSpvCuS7kMtAHbJux-29" value="&lt;font style=&quot;font-size: 8px;&quot;&gt;menulis pesanan customer&lt;/font&gt;" style="verticalLabelPosition=middle;verticalAlign=middle;html=1;shape=trapezoid;perimeter=trapezoidPerimeter;whiteSpace=wrap;size=0.23;arcSize=10;flipV=1;labelPosition=center;align=center;" vertex="1" parent="iQ4TSpvCuS7kMtAHbJux-7">
          <mxGeometry x="19.99" y="260" width="90.01" height="50" as="geometry" />
        </mxCell>
        <mxCell id="iQ4TSpvCuS7kMtAHbJux-66" value="" style="edgeStyle=orthogonalEdgeStyle;rounded=0;orthogonalLoop=1;jettySize=auto;html=1;" edge="1" parent="iQ4TSpvCuS7kMtAHbJux-7" source="iQ4TSpvCuS7kMtAHbJux-39" target="iQ4TSpvCuS7kMtAHbJux-65">
          <mxGeometry relative="1" as="geometry" />
        </mxCell>
        <mxCell id="iQ4TSpvCuS7kMtAHbJux-39" value="&lt;font style=&quot;font-size: 8px;&quot;&gt;pesanan customer&lt;/font&gt;" style="shape=document;whiteSpace=wrap;html=1;boundedLbl=1;" vertex="1" parent="iQ4TSpvCuS7kMtAHbJux-7">
          <mxGeometry x="27.99" y="350" width="75" height="60" as="geometry" />
        </mxCell>
        <mxCell id="iQ4TSpvCuS7kMtAHbJux-64" style="edgeStyle=orthogonalEdgeStyle;rounded=0;orthogonalLoop=1;jettySize=auto;html=1;exitX=0.5;exitY=1;exitDx=0;exitDy=0;" edge="1" parent="iQ4TSpvCuS7kMtAHbJux-7" source="iQ4TSpvCuS7kMtAHbJux-9" target="iQ4TSpvCuS7kMtAHbJux-60">
          <mxGeometry relative="1" as="geometry" />
        </mxCell>
        <mxCell id="iQ4TSpvCuS7kMtAHbJux-9" value="START" style="ellipse;whiteSpace=wrap;html=1;" vertex="1" parent="iQ4TSpvCuS7kMtAHbJux-7">
          <mxGeometry x="30.99000000000001" y="30" width="68.75" height="40" as="geometry" />
        </mxCell>
        <mxCell id="iQ4TSpvCuS7kMtAHbJux-60" value="&lt;font style=&quot;font-size: 8px;&quot;&gt;memberikan menu kpd customer&lt;/font&gt;" style="shape=document;whiteSpace=wrap;html=1;boundedLbl=1;" vertex="1" parent="iQ4TSpvCuS7kMtAHbJux-7">
          <mxGeometry x="20.490000000000002" y="100" width="90" height="50" as="geometry" />
        </mxCell>
        <mxCell id="iQ4TSpvCuS7kMtAHbJux-65" value="end" style="ellipse;whiteSpace=wrap;html=1;" vertex="1" parent="iQ4TSpvCuS7kMtAHbJux-7">
          <mxGeometry x="28.479999999999997" y="470" width="74.51" height="47.5" as="geometry" />
        </mxCell>
        <mxCell id="iQ4TSpvCuS7kMtAHbJux-30" value="" style="edgeStyle=orthogonalEdgeStyle;rounded=0;orthogonalLoop=1;jettySize=auto;html=1;" edge="1" parent="iQ4TSpvCuS7kMtAHbJux-5" source="iQ4TSpvCuS7kMtAHbJux-25" target="iQ4TSpvCuS7kMtAHbJux-29">
          <mxGeometry relative="1" as="geometry" />
        </mxCell>
        <mxCell id="iQ4TSpvCuS7kMtAHbJux-61" style="edgeStyle=orthogonalEdgeStyle;rounded=0;orthogonalLoop=1;jettySize=auto;html=1;entryX=0.5;entryY=0;entryDx=0;entryDy=0;" edge="1" parent="iQ4TSpvCuS7kMtAHbJux-5" source="iQ4TSpvCuS7kMtAHbJux-60" target="iQ4TSpvCuS7kMtAHbJux-25">
          <mxGeometry relative="1" as="geometry" />
        </mxCell>
      </root>
    </mxGraphModel>
  </diagram>
</mxfile>
